<svg xmlns="http://www.w3.org/2000/svg" xmlns:xlink="http://www.w3.org/1999/xlink" width="126" height="25" viewBox="0 0 126 25">
  <defs>
    <polygon id="4-4-a" points="0 0 10.789 0 10.789 25 0 25"/>
  </defs>
  <g fill="none" fill-rule="evenodd">
    <polygon fill="#FECA3C" fill-rule="nonzero" points="45.547 24.068 43.493 15.265 50.3 9.338 41.322 8.575 37.8 .3 34.279 8.575 25.3 9.338 32.108 15.265 30.054 24.068 37.8 19.373"/>
    <polygon fill="#FECA3C" fill-rule="nonzero" points="20.246 23.768 18.192 14.965 25 9.038 16.021 8.275 12.5 0 8.979 8.275 0 9.038 6.808 14.965 4.754 23.768 12.5 19.073"/>
    <polygon fill="#FECA3C" fill-rule="nonzero" points="95.547 24.068 93.493 15.265 100.3 9.338 91.322 8.575 87.8 .3 84.279 8.575 75.3 9.338 82.108 15.265 80.054 24.068 87.8 19.373"/>
    <g transform="translate(100)">
      <mask id="4-4-b" fill="#fff">
        <use xlink:href="#4-4-a"/>
      </mask>
      <polygon fill="#FECA3C" fill-rule="nonzero" points="13.421 0 9.715 8.704 .263 9.506 7.429 15.741 5.267 24 13.421 19.062" mask="url(#4-4-b)"/>
      <path stroke="#FECA3C" stroke-width="2" d="M19.5425665,22.6315525 L17.8095749,15.2044456 L23.5623711,10.1955455 L15.9775158,9.55108064 L13,2.55391856 L10.0224842,9.55108064 L2.43762888,10.1955455 L8.19042508,15.2044456 L6.45743348,22.6315525 L13,18.6663607 L19.5425665,22.6315525 Z"/>
    </g>
    <polygon fill="#FECA3C" fill-rule="nonzero" points="70.547 24.068 68.493 15.265 75.3 9.338 66.322 8.575 62.8 .3 59.279 8.575 50.3 9.338 57.108 15.265 55.054 24.068 62.8 19.373"/>
  </g>
</svg>
