<svg xmlns="http://www.w3.org/2000/svg" width="126" height="25" viewBox="0 0 126 25">
  <g fill="none">
    <polygon fill="#FECA3C" points="45.547 24.068 43.493 15.265 50.3 9.338 41.322 8.575 37.8 .3 34.279 8.575 25.3 9.338 32.108 15.265 30.054 24.068 37.8 19.373"/>
    <polygon fill="#FECA3C" points="20.246 23.768 18.192 14.965 25 9.038 16.021 8.275 12.5 0 8.979 8.275 0 9.038 6.808 14.965 4.754 23.768 12.5 19.073"/>
    <polygon fill="#FECA3C" points="95.547 24.068 93.493 15.265 100.3 9.338 91.322 8.575 87.8 .3 84.279 8.575 75.3 9.338 82.108 15.265 80.054 24.068 87.8 19.373"/>
    <g transform="translate(100)">
      <polygon fill="#FECA3C" points="13 0 9.338 8.606 0 9.399 7.08 15.563 4.944 24.718 13 19.836"/>
      <path stroke="#FECA3C" stroke-width="2" d="M19.5425665,22.6315525 L17.8095749,15.2044456 L23.5623711,10.1955455 L15.9775158,9.55108064 L13,2.55391856 L10.0224842,9.55108064 L2.43762888,10.1955455 L8.19042508,15.2044456 L6.45743348,22.6315525 L13,18.6663607 L19.5425665,22.6315525 Z"/>
    </g>
    <polygon fill="#FECA3C" points="70.547 24.068 68.493 15.265 75.3 9.338 66.322 8.575 62.8 .3 59.279 8.575 50.3 9.338 57.108 15.265 55.054 24.068 62.8 19.373"/>
  </g>
</svg>
