<svg xmlns="http://www.w3.org/2000/svg" xmlns:xlink="http://www.w3.org/1999/xlink" width="126" height="25" viewBox="0 0 126 25">
  <defs>
    <polygon id="4.7-a" points="0 0 16.947 0 16.947 23 0 23"/>
  </defs>
  <g fill="none" fill-rule="evenodd">
    <polygon fill="#FECA3C" fill-rule="nonzero" points="45.547 24.068 43.493 15.265 50.3 9.338 41.322 8.575 37.8 .3 34.279 8.575 25.3 9.338 32.108 15.265 30.054 24.068 37.8 19.373"/>
    <polygon fill="#FECA3C" fill-rule="nonzero" points="20.246 23.768 18.192 14.965 25 9.038 16.021 8.275 12.5 0 8.979 8.275 0 9.038 6.808 14.965 4.754 23.768 12.5 19.073"/>
    <polygon fill="#FECA3C" fill-rule="nonzero" points="95.547 24.068 93.493 15.265 100.3 9.338 91.322 8.575 87.8 .3 84.279 8.575 75.3 9.338 82.108 15.265 80.054 24.068 87.8 19.373"/>
    <polygon fill="#FECA3C" fill-rule="nonzero" points="70.547 24.068 68.493 15.265 75.3 9.338 66.322 8.575 62.8 .3 59.279 8.575 50.3 9.338 57.108 15.265 55.054 24.068 62.8 19.373"/>
    <g transform="translate(101 1)">
      <mask id="4.7-b" fill="#fff">
        <use xlink:href="#4.7-a"/>
      </mask>
      <polygon fill="#FECA3C" fill-rule="nonzero" points="19.607 23 17.618 14.481 24.211 8.746 15.515 8.007 12.105 0 8.695 8.007 0 8.746 6.593 14.481 4.603 23 12.105 18.457" mask="url(#4.7-b)"/>
    </g>
    <path stroke="#FECA3C" stroke-width="2" d="M119.542567,22.6315525 L117.809575,15.2044456 L123.562371,10.1955455 L115.977516,9.55108064 L113,2.55391856 L110.022484,9.55108064 L102.437629,10.1955455 L108.190425,15.2044456 L106.457433,22.6315525 L113,18.6663607 L119.542567,22.6315525 Z"/>
  </g>
</svg>
