<svg width="261" height="144" viewBox="0 0 261 144" fill="none" xmlns="http://www.w3.org/2000/svg">
<mask id="mask0_375_14096" style="mask-type:alpha" maskUnits="userSpaceOnUse" x="0" y="0" width="261" height="144">
<rect width="260.859" height="144" fill="#E7F7FE"/>
</mask>
<g mask="url(#mask0_375_14096)">
<path d="M96.532 64.0879C85.0398 85.6829 102.684 98.8016 95.003 126.088" stroke="#C6E9FB" stroke-opacity="0.4" stroke-width="0.52533" stroke-miterlimit="10"/>
<path d="M179.88 43.2434C171.099 40.3346 160.34 39.1302 145.585 37.5882C143.222 37.3415 140.936 37.2148 138.725 37.2148C124.798 37.2148 113.816 42.1916 104.366 52.9923" stroke="#C6E9FB" stroke-opacity="0.4" stroke-width="0.52533" stroke-miterlimit="10"/>
<path d="M198.595 133.19C210.214 121.347 226.868 99.72 215.34 79.0729C205.51 61.4709 197.784 52.1213 187.873 46.6836" stroke="#C6E9FB" stroke-opacity="0.4" stroke-width="0.52533" stroke-miterlimit="10"/>
<path opacity="0.3" d="M107.849 135.448H184.334C189.038 135.448 193.531 133.542 196.823 130.185C207.786 119.011 223.499 98.6042 212.623 79.1226C193.791 45.3958 183.136 43.7791 146.806 39.9776C144.576 39.7438 142.42 39.627 140.336 39.627C124.805 39.627 113.15 46.1879 103.184 60.6311C87.2604 83.7098 106.826 95.9552 99.0773 123.485" fill="#C6E9FB"/>
<path d="M182.961 43.1758C182.698 43.5848 182.445 43.9971 182.201 44.4159" stroke="#C6E9FB" stroke-opacity="0.4" stroke-width="0.52533" stroke-miterlimit="10"/>
<path d="M184.928 43.9805C184.779 44.4155 184.61 44.844 184.422 45.266" stroke="#C6E9FB" stroke-opacity="0.4" stroke-width="0.52533" stroke-miterlimit="10"/>
<path d="M187.327 45.3418C187.055 45.7833 186.801 46.2378 186.571 46.7053" stroke="#C6E9FB" stroke-opacity="0.4" stroke-width="0.52533" stroke-miterlimit="10"/>
<path d="M101.294 54.4531C101.726 54.7615 102.161 55.0732 102.593 55.3816" stroke="#C6E9FB" stroke-opacity="0.4" stroke-width="0.52533" stroke-miterlimit="10"/>
<path d="M97.7754 59.6016C98.2494 60.0009 98.8272 60.2703 99.4375 60.3742" stroke="#C6E9FB" stroke-opacity="0.4" stroke-width="0.52533" stroke-miterlimit="10"/>
<path d="M100.941 56.168C100.353 56.9374 99.8175 57.7457 99.337 58.5865" stroke="#C6E9FB" stroke-opacity="0.4" stroke-width="0.52533" stroke-miterlimit="10"/>
<path d="M95.9802 98.9824C95.9802 98.9824 112.693 74.5792 124.863 72.758C137.034 70.9368 157.068 68.515 166.683 77.699C176.302 86.8831 202.959 130.748 196.612 134.196C192.989 136.163 123.837 135.176 123.837 135.176L100.022 135.206L95.9769 98.9824H95.9802Z" fill="#2A4365"/>
<path d="M189.285 111.8C192.706 125.295 176.9 129.639 176.9 129.639C176.9 129.639 176.663 132.473 176.406 135.323C187.058 135.177 195.414 134.849 196.612 134.197C199.582 132.583 195.323 122.117 188.967 110.498C189.067 110.92 189.171 111.352 189.285 111.797V111.8Z" fill="#233859"/>
<path d="M118.659 86.4688C118.659 86.4688 109.141 111.563 108.82 112.375C106.55 118.102 114.267 123.676 114.767 122.741C114.767 122.741 105.872 125.682 105.502 124.504C105.132 123.328 102.723 108.622 102.723 108.622L118.659 86.4688Z" fill="#233859"/>
<path d="M159.512 94.3828C159.512 94.3828 154.263 120.968 149.883 121.588L158.515 121.88C158.515 121.88 163.197 122.175 163.34 121.25C163.482 120.325 170.624 116.014 170.624 116.014L159.509 94.3861L159.512 94.3828Z" fill="#233859"/>
<path d="M145.851 30.0898C136.2 22.7887 147.919 7.56957 156.811 8.15716C156.811 8.15716 151.925 9.69595 150.822 11.686C150.822 11.686 156.759 5.83924 164.021 13.8838C171.284 21.9316 163.684 32.7778 157.896 33.4174C152.107 34.0569 145.845 30.0898 145.845 30.0898H145.851Z" fill="#2A4365"/>
<path d="M149.104 10.9271C142.981 15.5629 138.92 24.8574 145.838 30.0841C145.838 30.0841 152.101 34.0512 157.889 33.4116C160.885 33.0837 164.362 30.0126 166.018 26.0131C156.587 32.0871 150.445 18.7963 149.107 10.9238V10.9303L149.104 10.9271Z" fill="#233859"/>
<path d="M148 12.7738C147.218 12.342 146.251 12.5076 145.621 13.1406C140.683 18.0849 138.161 25.9444 144.309 30.5933H144.303C144.303 30.5933 150.565 34.5604 156.353 33.9208C156.353 33.9208 156.357 33.9208 156.36 33.9208C156.837 33.8689 157.223 33.515 157.353 33.054C158.847 27.8014 153.049 15.5625 147.997 12.7738H148Z" fill="#48A1DF"/>
<path d="M140.056 25.4042L140.625 24.6543C141.108 24.8718 141.024 25.3425 141.024 25.3425L140.06 25.401L140.056 25.4042Z" fill="black"/>
<path d="M137.388 27.3292L138.141 26.7676C138.544 27.1084 138.336 27.537 138.336 27.537L137.388 27.3292Z" fill="black"/>
<path d="M110.56 15.7891C100.181 16.0877 98.0319 39.4748 111.001 45.3507L112.92 23.522L110.56 15.7891Z" fill="#2A4365"/>
<path d="M105.83 29.8693C105.093 31.9438 105.713 34.4208 106.3 36.3913C102.674 31.9535 101.613 25.925 104.008 20.3477C99.5999 26.6749 100.957 40.8519 110.803 45.4877L111.131 38.6573C108.271 37.1153 106.093 33.4144 105.836 29.8693H105.83Z" fill="#2A4365"/>
<path d="M147.429 46.599C143.884 55.3253 146.088 71.0735 146.088 71.0735C143.218 75.6639 133.895 77.9559 131.389 78.1507C128.882 78.339 126.587 74.1381 126.587 74.1381C130.983 70.8852 131.389 60.1786 131.389 60.1786L147.429 46.6022V46.5957V46.599Z" fill="#E9B6A6"/>
<path opacity="0.3" d="M145.621 55.3084C145.88 52.1854 146.419 49.1078 147.435 46.6016L131.395 60.178C131.395 60.178 131.083 68.4401 128.025 72.6539C136.008 70.2061 141.683 62.616 145.621 55.3116V55.3084Z" fill="#233859"/>
<path d="M115.384 21.3269C107.693 26.5017 108.768 34.6047 109.991 41.685C110.573 45.0223 111.813 52.5507 115.942 58.3618C120.581 64.887 125.821 66.6661 128.577 66.3577C129.97 66.3447 134.813 64.478 139.741 59.9136C142.572 57.2937 145.322 53.5798 146.5 50.6711C148.828 50.7295 152.854 47.2948 152 40.841C151.318 35.7376 147.458 37.0005 147.458 37.0005C147.458 37.0005 146.384 25.1706 140.05 20.0543C133.726 14.9445 122.763 16.3599 115.384 21.3301V21.3269Z" fill="#E9B6A6"/>
<path d="M152.753 22.5532C150.688 16.3461 146.65 12.418 143.02 9.9637C136.368 5.46095 115.975 2.60412 110.271 15.8884L112.595 23.7414C130.23 10.389 118.159 38.8274 139.894 39.0806C142.533 39.3728 143.059 47.2128 143.059 47.2128C143.059 47.2128 147.345 42.0803 147.215 37.7918C152.737 38.0126 152.126 45.9532 147.471 49.7126C144.637 52.0045 145.221 55.8645 146.267 57.4682C154.142 54.3582 160.223 38.8144 152.76 22.55H152.753V22.5532Z" fill="#2A4365"/>
<path d="M152.357 28.5504C152.052 31.7968 150.072 34.0887 146.747 32.7188C145.637 32.261 144.991 30.6962 144.377 29.6639C144.533 31.8 143.757 35.0756 139.245 36.6631C134.726 38.2441 127.788 30.508 124.013 21.6453C122.166 17.3081 115.134 16.4673 112.589 24.0801C129.879 10.231 118.669 39.046 139.868 39.1758C142.507 39.468 143.033 47.3081 143.033 47.3081C143.033 47.3081 147.315 42.1755 147.186 37.887C152.708 38.1078 152.097 46.0485 147.442 49.8078C144.608 52.0997 145.241 55.8623 146.286 57.4693C154.162 54.3592 160.463 39.3609 153 23.0964C153 23.0964 152.662 26.1091 152.357 28.5471V28.5504Z" fill="#233859"/>
<path d="M155.717 46.6397C157.152 42.0169 156.814 34.7644 154.256 28.0801" stroke="#233859" stroke-width="0.52533" stroke-linecap="round" stroke-linejoin="round"/>
<path d="M147.15 51.5028C147.903 51.4477 148.468 50.7951 148.413 50.042C148.357 49.2888 147.705 48.7239 146.952 48.7791C146.199 48.8343 145.634 49.4868 145.689 50.24C145.744 50.9932 146.397 51.558 147.15 51.5028Z" fill="#EF515B"/>
<path d="M145.978 70C145.978 70 140.917 76.4668 130.957 78.1387C130.957 78.1387 132.778 86.0891 136.388 86.0891C139.998 86.0891 149.202 74.4411 149.202 72.6523C149.202 70.8635 145.975 70 145.975 70H145.981H145.978Z" fill="#F5FDFF"/>
<path d="M132.548 79.4172C133.177 81.4105 134.625 85.0042 136.885 85.0042C140.008 85.0042 147.971 74.9274 147.971 73.3789" stroke="#2A4365" stroke-width="0.52533" stroke-linecap="round" stroke-linejoin="round"/>
<path d="M130.95 78.1387C130.95 78.1387 126.86 85.2256 124.172 83.5959C121.013 81.6773 124.694 75.2916 125.344 73.4607C125.99 71.6297 129.454 70 129.454 70C129.454 70 128.872 71.4479 128.103 72.5711C127.483 73.4801 127.509 74.691 128.152 75.5838C129.194 77.0317 130.95 78.1387 130.95 78.1387Z" fill="#F5FDFF"/>
<path d="M130.226 77.9199C130.226 77.9199 126.873 83.731 124.669 82.3935C122.078 80.8222 125.097 75.5858 125.63 74.0859" stroke="#2A4365" stroke-width="0.52533" stroke-linecap="round" stroke-linejoin="round"/>
<path d="M113.728 21.6804C106.557 20.8786 109.173 32.4617 109.173 32.4617C109.173 32.4617 109.086 27.5596 112.65 24.0308L113.728 21.6804Z" fill="#233859"/>
<path d="M113.241 18.2451C119.783 12.9892 125.535 15.0182 131.405 19.982C136.378 24.1016 141.579 29.4549 148.53 26.3968C141.712 30.3704 135.758 24.9425 130.756 20.7773C124.993 15.8915 120.107 13.9437 113.241 18.2386V18.2451Z" fill="#233859" stroke="#233859" stroke-width="0.52533" stroke-miterlimit="10"/>
<path d="M128.36 89.0898V93.1965" stroke="#2A4365" stroke-width="0.266971" stroke-miterlimit="10"/>
<path d="M108.875 38.4783C109.868 35.628 115.176 35.5176 115.176 35.5176" stroke="#1B4268" stroke-width="1.09803" stroke-linecap="round" stroke-linejoin="round"/>
<path d="M123.691 34.1446C128.327 30.9567 136.196 35.1964 136.196 35.1964" stroke="#1B4268" stroke-width="1.09803" stroke-linecap="round" stroke-linejoin="round"/>
<path d="M115.205 43.9672C115.41 44.9022 115.046 45.7722 114.394 45.9183C113.741 46.0612 113.043 45.4216 112.835 44.4867C112.628 43.5517 112.994 42.6817 113.647 42.5356C114.299 42.3927 114.997 43.0323 115.205 43.9672Z" fill="#1B4268"/>
<path d="M104.979 47.3372L110.303 45.3926" stroke="#233859" stroke-width="0.5" stroke-linecap="round" stroke-linejoin="round"/>
<path d="M130.872 41.1129C131.08 42.0576 130.71 42.9407 130.051 43.09C129.389 43.2328 128.684 42.59 128.473 41.6421C128.266 40.6974 128.636 39.8144 129.298 39.6683C129.96 39.5255 130.665 40.1682 130.876 41.1162L130.872 41.1129Z" fill="#1B4268"/>
<g opacity="0.3">
<path d="M104.622 45.7507C104.81 47.5037 105.638 49.0263 106.842 50.1333L109.573 38.3164C106.401 39.2546 104.252 42.3484 104.622 45.7539V45.7507Z" fill="#C6E9FB"/>
<path d="M118.497 44.2472C118.305 42.4876 117.474 40.9586 116.263 39.8516L113.53 51.6879C116.711 50.7562 118.867 47.6591 118.5 44.2472H118.497Z" fill="#C6E9FB"/>
<path d="M114.001 38.4688L110.888 51.9478C111.248 51.9835 111.618 51.9802 111.991 51.9575L114.998 38.9362C114.679 38.7544 114.345 38.5986 114.001 38.4688Z" fill="#C6E9FB"/>
</g>
<g opacity="0.3">
<path d="M123.094 42.2721C123.282 44.0252 124.11 45.5478 125.314 46.6548L128.045 34.8379C124.873 35.7761 122.724 38.8699 123.094 42.2754V42.2721Z" fill="#C6E9FB"/>
<path d="M136.969 40.7687C136.777 39.0091 135.946 37.4801 134.735 36.373L132.002 48.2094C135.183 47.2777 137.339 44.1806 136.972 40.7687H136.969Z" fill="#C6E9FB"/>
<path d="M132.476 34.9863L129.363 48.4654C129.723 48.5011 130.093 48.4978 130.466 48.4751L133.473 35.4538C133.154 35.272 132.82 35.1162 132.476 34.9863Z" fill="#C6E9FB"/>
</g>
<path d="M118.497 44.2491C118.913 48.083 116.143 51.5242 112.313 51.9398C108.482 52.3553 105.038 49.5829 104.622 45.7554C104.206 41.9246 106.976 38.4802 110.806 38.0647C114.64 37.6491 118.082 40.4216 118.497 44.2491Z" stroke="#233859" stroke-width="0.5" stroke-linecap="round" stroke-linejoin="round"/>
<path d="M137.125 41.0772C137.54 44.9079 134.771 48.3524 130.941 48.7679C127.11 49.1834 123.665 46.411 123.25 42.5835C122.834 38.7528 125.607 35.3083 129.434 34.8928C133.268 34.4773 136.709 37.2497 137.125 41.0772Z" stroke="#233859" stroke-width="0.5" stroke-linecap="round" stroke-linejoin="round"/>
<path d="M118.276 43.1112C120.283 41.8483 123.221 42.0886 123.221 42.0886" stroke="#233859" stroke-width="0.5" stroke-linecap="round" stroke-linejoin="round"/>
<path d="M136.732 39.361L147.13 37.3223" stroke="#2A4365" stroke-width="0.809525" stroke-linecap="round" stroke-linejoin="round"/>
<path d="M120.848 46.8145C121.289 47.6942 117.634 49.8044 121.182 50.6517" stroke="#1B4268" stroke-width="0.615756" stroke-linecap="round" stroke-linejoin="round"/>
<g opacity="0.6">
<path d="M123.471 56.8204C124.896 57.3073 126.217 56.3594 126.217 56.3594C125.383 58.1806 123.471 56.8204 123.471 56.8204Z" fill="#E9B6A6"/>
</g>
<path d="M122.364 56.4391C124.737 56.9812 126.87 56.4456 128.671 54.3906" stroke="#4A2B5F" stroke-width="0.52533" stroke-linecap="round" stroke-linejoin="round"/>
<path d="M123.743 55.7774C123.867 55.5469 124.052 55.4755 124.23 55.5112C124.535 55.5729 124.831 55.4236 125.016 55.1736C125.422 54.6282 126.058 54.7029 126.636 55.4528C126.678 55.508 126.717 55.5696 126.74 55.6346C126.746 55.6508 126.753 55.667 126.759 55.6865C127.259 57.1052 125.59 58.3291 124.334 57.5013C123.73 57.1019 123.331 56.5273 123.743 55.7774Z" stroke="#4A2B5F" stroke-width="0.52533" stroke-linejoin="round"/>
<path d="M165.171 121.627C165.112 121.056 132.947 124.208 124.834 125.799C123.214 126.117 115.079 123.104 112.985 123.12C108.466 123.159 103.087 125.169 103.087 125.169L99.7915 132.889C99.7915 132.889 112.258 132.707 113.219 132.834C114.439 132.993 121.098 132.928 126.516 134.327C131.772 135.681 137.05 135.125 142.436 134.596L170.693 134.346L165.171 121.627Z" fill="#E9B6A6"/>
<path opacity="0.3" d="M169.91 132.546L168.014 129.66L126.392 133.062L131.882 135.121C135.369 135.306 138.878 134.949 142.436 134.598L169.414 134.358L169.91 132.546Z" fill="#233859"/>
<path d="M62.5647 130.804H129.616C130.158 130.804 130.596 131.242 130.596 131.784V133.531H62.5647V130.801V130.804Z" fill="white"/>
<path d="M66.5091 131.962H133.56C134.102 131.962 134.541 132.4 134.541 132.943V134.689H66.5091V131.959V131.962Z" fill="#BCD5E2"/>
<path opacity="0.29" d="M66.5091 131.962H133.56C134.102 131.962 134.541 132.4 134.541 132.943V134.689H66.5091V131.959V131.962Z" fill="#233859"/>
<path d="M127.551 130.717V132.041" stroke="#BCD5E2" stroke-width="0.39615" stroke-miterlimit="10"/>
<path d="M123.574 130.717V132.041" stroke="#BCD5E2" stroke-width="0.39615" stroke-miterlimit="10"/>
<path d="M119.594 130.717V132.041" stroke="#BCD5E2" stroke-width="0.39615" stroke-miterlimit="10"/>
<path d="M115.617 130.717V132.041" stroke="#BCD5E2" stroke-width="0.39615" stroke-miterlimit="10"/>
<path d="M111.637 130.717V132.041" stroke="#BCD5E2" stroke-width="0.39615" stroke-miterlimit="10"/>
<path d="M178.854 134.174L169.845 135.105L162.736 119.685L168.852 116.818L178.854 134.174Z" fill="#F5FDFF"/>
<path opacity="0.3" d="M174.867 127.254C172.339 128.147 168.446 129.465 167.407 129.815L169.845 135.104L178.857 134.172L174.871 127.254H174.867Z" fill="#233859"/>
<path d="M111.699 134.621H49.7093L36.873 76.5625H98.8629L111.699 134.621Z" fill="#D0E6EF"/>
<path d="M110.904 134.621H48.9138L36.0776 76.5625H98.0675L110.904 134.621Z" fill="#BCD5E2"/>
<path d="M170.021 118.212L178.432 112.771L170.553 113.813L159.389 94.0137L168.229 115.183L170.021 118.212Z" fill="#233859"/>
<path d="M130.957 78.1387C129.801 80.7585 128.606 84.8782 128.171 88.4492C127.866 90.9522 128.191 92.7799 128.058 95.377C127.889 98.6494 127.369 101.915 127.681 104.74" stroke="#F5FDFF" stroke-width="0.52533" stroke-miterlimit="10"/>
<path d="M128.856 99.7146C128.811 100.903 128.178 101.844 127.438 101.818C126.698 101.789 126.139 100.809 126.185 99.614C126.23 98.4193 126.863 97.4843 127.603 97.5103C128.343 97.5395 128.902 98.5264 128.856 99.7146Z" fill="#F5FDFF"/>
<path d="M147.666 42.1602C147.659 43.2704 147.76 44.3807 147.971 45.4715" stroke="#4A2B5F" stroke-width="0.52533" stroke-linecap="round" stroke-linejoin="round"/>
<path d="M149.292 43.9997L147.861 43.6621" stroke="#4A2B5F" stroke-width="0.52533" stroke-linecap="round" stroke-linejoin="round"/>
<path d="M26.6741 135.129H203.937" stroke="#2A4365" stroke-width="1.05497" stroke-miterlimit="10"/>
<g opacity="0.1">
<path d="M103.622 119.768L106.411 130.724L91.9352 130.864" stroke="#2A4365" stroke-width="0.39615" stroke-miterlimit="10"/>
<path d="M59.1107 133.475L51.2512 133.517" stroke="#2A4365" stroke-width="0.39615" stroke-miterlimit="10"/>
<path d="M63.3443 133.564L61.088 133.561" stroke="#2A4365" stroke-width="0.39615" stroke-miterlimit="10"/>
<path d="M60.3867 79.8574L40.7655 80.1756L44.3787 95.2096L47.8264 110.471" stroke="#2A4365" stroke-width="0.39615" stroke-miterlimit="10"/>
</g>
<path d="M108.897 72.1147C109.609 72.1147 110.186 71.5377 110.186 70.8259C110.186 70.1141 109.609 69.5371 108.897 69.5371C108.186 69.5371 107.609 70.1141 107.609 70.8259C107.609 71.5377 108.186 72.1147 108.897 72.1147Z" fill="white"/>
<path d="M110.612 15.3771C112.18 11.0205 118.523 5.88141 125.831 5.36523" stroke="#2A4365" stroke-width="0.52533" stroke-linecap="round" stroke-linejoin="round"/>
<path d="M105.687 15.1395C105.843 14.8603 106.135 14.6753 106.443 14.5941C106.752 14.5129 107.08 14.5292 107.394 14.5779C108.482 14.7434 109.472 15.2888 110.436 15.8245C109.992 14.6428 110.144 13.2598 110.141 11.997C110.141 11.786 110.141 11.575 110.141 11.3672" stroke="#2A4365" stroke-width="0.52533" stroke-linecap="round" stroke-linejoin="round"/>
<path d="M164.385 14.4277C166.128 15.9763 168.157 21.4075 167.469 25.5012" stroke="#2A4365" stroke-width="0.52533" stroke-linecap="round" stroke-linejoin="round"/>
<path opacity="0.4" d="M113.293 107.506C115.855 108.301 118.429 109.097 121.085 109.463C123.74 109.83 126.506 109.746 129.019 108.814C130.022 108.444 130.996 107.934 132.061 107.843C132.95 107.766 133.836 107.986 134.71 108.171C136.362 108.522 138.044 108.746 139.729 108.84C144.575 109.116 149.455 108.34 154.279 108.882" stroke="#F5FDFF" stroke-width="0.262665" stroke-miterlimit="10"/>
<path opacity="0.4" d="M112.994 111.768C119.247 115.04 126.837 114.816 133.625 112.888C134.151 112.738 134.677 112.579 135.219 112.524C135.963 112.449 136.706 112.576 137.443 112.686C142.293 113.417 147.215 113.524 152.12 113.511" stroke="#F5FDFF" stroke-width="0.262665" stroke-miterlimit="10"/>
<path opacity="0.4" d="M112.595 116.463C119.357 117.856 126.276 119.161 133.132 118.32C134.294 118.177 135.453 117.972 136.625 117.95C138.154 117.921 139.67 118.203 141.189 118.388C143.699 118.696 146.234 118.745 148.76 118.797" stroke="#F5FDFF" stroke-width="0.262665" stroke-miterlimit="10"/>
<path d="M41.3814 110.14L37.9719 109.295L35.7477 118.269L39.1571 119.114L41.3814 110.14Z" fill="#D2CDF9"/>
<path d="M40.7101 106.873L40.1647 106.736L37.9734 109.291L41.3821 110.135L40.7101 106.873Z" fill="#F4D995"/>
<path d="M43.2136 112.631L40.0659 111.072L35.9622 119.357L39.1098 120.916L43.2136 112.631Z" fill="#E8D095"/>
<path d="M36.9736 109.801H33.461V119.047H36.9736V109.801Z" fill="#FBCE50"/>
<path d="M36.9736 107.717H33.461V109.804H36.9736V107.717Z" fill="#F4D995"/>
<path d="M31.9395 110.493L29.1941 110.736L30.0095 119.946L32.755 119.703L31.9395 110.493Z" fill="#97999B"/>
<path d="M32.4682 112.1L28.9693 112.41L29.7848 121.62L33.2837 121.31L32.4682 112.1Z" fill="#BCBCBC"/>
<path opacity="0.3" d="M31.5273 112.185L29.9071 112.328L30.7226 121.538L32.3427 121.394L31.5273 112.185Z" fill="white"/>
<path d="M39.5317 134.786H29.9613L28.8413 118.486H40.6517L39.5317 134.786Z" fill="#305E8C"/>
<path d="M36.9736 109.492H33.461V109.801H36.9736V109.492Z" fill="#2C5281"/>
<path d="M40.5607 119.808L40.6516 118.486H38.8628L38.7719 119.808H28.9321L29.195 123.635H38.5089L37.746 134.786H39.5315L40.3594 122.762L40.5607 119.808Z" fill="#233859"/>
<path d="M41.7036 118.486H27.7863V122.314H41.7036V118.486Z" fill="#2C5281"/>
<path opacity="0.3" d="M34.2271 110.588C34.4024 112.974 34.4284 115.37 34.305 117.756" stroke="#1B4268" stroke-width="0.4" stroke-linecap="round" stroke-linejoin="round"/>
<path opacity="0.3" d="M35.8794 110.541C35.9151 112.408 35.9508 114.274 35.8404 116.138C35.8047 116.751 35.9118 117.888 35.9313 117.845" stroke="#1B4268" stroke-width="0.4" stroke-linecap="round" stroke-linejoin="round"/>
<path d="M29.1465 112.196C30.1659 112.183 31.1852 112.121 32.2014 112.008" stroke="#2C5281" stroke-width="0.52533" stroke-miterlimit="10"/>
<path d="M127.467 98.7988C127.327 99.2955 127.194 99.9935 127.249 100.851" stroke="#2A4365" stroke-width="0.52533" stroke-miterlimit="10"/>
<path d="M126.831 99.6592C127.347 99.617 127.863 99.5813 128.379 99.5586" stroke="#2A4365" stroke-width="0.52533" stroke-miterlimit="10"/>
<path d="M129.408 88.9331C129.129 90.0856 128.317 90.8874 127.6 90.7121C126.883 90.5368 126.529 89.4623 126.811 88.3033C127.094 87.1411 127.902 86.349 128.619 86.5243C129.337 86.6996 129.691 87.7806 129.408 88.9331Z" fill="#F5FDFF"/>
<path d="M128.08 87.4355C127.905 87.9322 127.843 89.0003 128.022 89.7048" stroke="#2A4365" stroke-width="0.52533" stroke-miterlimit="10"/>
<path d="M127.308 88.7418C127.538 88.6736 128.519 88.5016 128.759 88.5211" stroke="#2A4365" stroke-width="0.52533" stroke-miterlimit="10"/>
<path opacity="0.17" d="M69.4961 106.154C69.2623 105.683 69.1033 105.18 69.0448 104.671C68.9864 104.161 69.0351 103.648 69.1812 103.223" stroke="#2A4365" stroke-width="0.39615" stroke-linecap="round" stroke-linejoin="round"/>
<path opacity="0.17" d="M75.8656 104.1C76.0441 104.411 76.1902 104.742 76.2941 105.08C76.372 105.333 76.4272 105.593 76.4596 105.853C76.5895 106.973 76.2162 107.898 75.5247 108.46C74.9371 108.933 74.1222 109.148 73.184 108.998C72.3594 108.865 71.5641 108.473 70.8953 107.914" stroke="#2A4365" stroke-width="0.39615" stroke-linecap="round" stroke-linejoin="round"/>
<path opacity="0.17" d="M75.4955 105.697C75.6708 107.226 74.5865 108.268 73.0737 108.025C71.5609 107.781 70.1877 106.35 70.0091 104.821C69.889 103.779 70.0546 102.99 70.8434 102.652C71.0187 102.577 71.7687 102.844 71.9732 102.818C72.2004 102.788 72.7263 102.519 72.9796 102.561C74.4956 102.801 75.3202 104.168 75.4988 105.697H75.4955Z" fill="#2A4365"/>
<g opacity="0.17">
<path d="M72.4245 100.499C72.2264 100.769 72.1615 101.084 72.181 101.398C72.1907 101.548 72.2979 101.671 72.2589 101.807C72.2297 101.95 72.181 102.1 72.0674 102.35C72.0544 102.379 72.0251 102.392 71.9959 102.385C71.7167 102.327 71.5577 102.135 71.4733 101.931C71.3791 101.72 71.4863 101.486 71.5544 101.288C71.681 100.899 71.9894 100.541 72.379 100.431C72.418 100.421 72.4472 100.467 72.4245 100.496V100.499Z" fill="#2A4365"/>
</g>
</g>
</svg>
