<svg width="161" height="111" viewBox="0 0 161 111" fill="none" xmlns="http://www.w3.org/2000/svg">
<mask id="mask0_375_14351" style="mask-type:alpha" maskUnits="userSpaceOnUse" x="0" y="0" width="161" height="111">
<rect width="160.333" height="111" transform="matrix(-1 0 0 1 161 0)" fill="#D9D9D9"/>
</mask>
<g mask="url(#mask0_375_14351)">
<path opacity="0.3" d="M27.1134 101.821H103.599C108.303 101.821 112.796 99.915 116.087 96.5582C127.05 85.3841 142.763 64.9773 131.888 45.4956C113.055 11.7688 102.401 10.1521 66.0702 6.35061C63.8399 6.11687 61.6843 6 59.6001 6C44.0694 6 32.4148 12.561 22.4484 27.0042C6.52481 50.0828 26.0908 62.3282 18.3417 89.8576" fill="#C6E9FB"/>
<path d="M122.079 27.8984L123.722 31.9287C123.779 32.0709 123.902 32.1746 124.056 32.2092L128.312 33.1428C128.689 33.2274 128.808 33.7076 128.512 33.9574L125.18 36.7659C125.061 36.8658 124.999 37.0157 125.014 37.1694L125.442 41.4994C125.48 41.8836 125.057 42.1449 124.73 41.9413L121.028 39.6475C120.897 39.5668 120.736 39.5553 120.593 39.6168L116.599 41.3611C116.245 41.5148 115.864 41.1959 115.957 40.8232L116.999 36.5969C117.038 36.447 116.999 36.2895 116.896 36.1743L113.998 32.92C113.74 32.6318 113.929 32.1708 114.314 32.1439L118.662 31.8288C118.816 31.8173 118.954 31.7328 119.031 31.5983L121.236 27.8446C121.432 27.5103 121.925 27.5449 122.075 27.906L122.079 27.8984Z" fill="#FBCE50"/>
<path d="M141.737 33.4301L142.41 36.9149C142.441 37.0647 142.541 37.1915 142.684 37.253L145.939 38.6707C146.293 38.8244 146.316 39.3201 145.977 39.5083L142.868 41.2257C142.734 41.2987 142.645 41.4371 142.63 41.5907L142.283 45.1216C142.245 45.5058 141.783 45.6826 141.498 45.4175L138.901 42.997C138.79 42.8932 138.632 42.851 138.482 42.8817L135.011 43.6463C134.634 43.7308 134.322 43.3427 134.488 42.9931L135.992 39.7773C136.058 39.639 136.05 39.4737 135.973 39.3431L134.172 36.2848C133.976 35.9505 134.249 35.5356 134.634 35.5855L138.159 36.0197C138.312 36.0389 138.463 35.9813 138.566 35.866L140.925 33.2111C141.183 32.923 141.66 33.0536 141.733 33.434L141.737 33.4301Z" fill="#FBCE50"/>
<path d="M100.504 32.7783L99.338 36.1286C99.288 36.2746 99.1687 36.386 99.0186 36.4244L95.5941 37.3657C95.2208 37.4695 95.1246 37.9536 95.4363 38.1879L98.2683 40.3318C98.3915 40.424 98.4607 40.57 98.453 40.7237L98.2914 44.2661C98.2722 44.6542 98.707 44.8924 99.0263 44.6696L101.943 42.6448C102.07 42.5564 102.232 42.5372 102.374 42.591L105.698 43.8397C106.06 43.978 106.422 43.636 106.31 43.2672L105.283 39.8708C105.237 39.7248 105.267 39.5634 105.364 39.4443L107.58 36.6741C107.822 36.3706 107.611 35.9249 107.222 35.9173L103.671 35.8442C103.517 35.8442 103.374 35.7636 103.29 35.6329L101.335 32.6707C101.123 32.3479 100.631 32.4094 100.504 32.7744V32.7783Z" fill="#FBCE50"/>
<path d="M118.712 50.7912L119.97 42.7228C120.024 42.3846 120.339 42.1541 120.678 42.2041L121.474 42.327C121.852 42.3846 122.09 42.7689 121.971 43.13L119.481 50.7912H118.716H118.712Z" fill="#FBCE50"/>
<path d="M137.447 45.7519C137.824 45.8249 138.047 46.2168 137.912 46.5741L136.362 50.7889H135.796L136.723 46.236C136.793 45.9018 137.116 45.6866 137.447 45.7519Z" fill="#FBCE50"/>
<path d="M103.474 45.7519C103.097 45.8249 102.874 46.2168 103.009 46.5741L104.559 50.7889H105.125L104.198 46.236C104.128 45.9018 103.805 45.6866 103.474 45.7519Z" fill="#FBCE50"/>
<path d="M30.0786 53.1873H31.4546C40.1961 53.1873 47.294 60.1245 47.294 68.668V112.196H17.9582C13.6429 112.196 10.1379 108.771 10.1379 104.553V72.6727C10.1379 61.9176 19.0743 53.1836 30.0786 53.1836V53.1873Z" fill="#2A4365"/>
<path d="M81.8496 83.3514C83.0579 89.7255 83.8274 92.5879 85.7744 100.199L104.217 106.077C104.217 106.077 96.3713 108.821 92.0541 109.213C87.7368 109.605 74.7889 108.429 74.7889 108.429L69.2942 91.1893L75.9663 81.0039L81.8535 83.3553L81.8496 83.3514Z" fill="#E0ADA0"/>
<path opacity="0.4" d="M70.0676 92.4777L75.6777 88.8008V89.8497C75.5892 90.1993 77.3438 106.655 77.3438 106.655L74.8773 107.412V106.06" fill="#E18E76"/>
<path opacity="0.4" d="M144.538 97.0742H132.953V102.257H144.538V97.0742Z" fill="#233859"/>
<path d="M63.0145 57.4947C70.3408 62.9312 75.7701 67.8261 81.4571 79.825L72.6302 87.075L72.0377 93.2301C71.1065 99.6579 70.5216 102.478 69.9983 102.04L65.7619 111.561C65.7619 111.561 25.683 113.758 25.7407 112.345C25.7985 110.931 29.0768 84.7236 29.0768 84.7236C29.0768 84.7236 8.27935 81.5885 9.06431 80.8047C9.51065 80.359 13.2315 72.3982 22.8356 62.2781C29.9002 54.8359 50.9401 48.5349 63.0145 57.4947Z" fill="#2B6BB1"/>
<path d="M151.236 110.738H2.5826" stroke="#2A4365" stroke-width="1.05497" stroke-miterlimit="10"/>
<path opacity="0.2" d="M37.9345 71.2988C37.3227 71.1835 27.5646 83.0095 27.5646 83.0095L29.8733 84.5041L37.9345 71.2949V71.2988Z" fill="#233859"/>
<path opacity="0.4" d="M38.2039 71.2323C38.1115 71.1747 37.9922 71.2054 37.9345 71.2976L30.6737 83.2466C30.6352 83.3081 30.6391 83.3849 30.6737 83.4425C30.3081 83.6462 29.4116 84.161 28.6343 84.6528C28.9191 84.6951 29.0768 84.722 29.0768 84.722C29.0768 84.722 25.7985 110.929 25.7408 112.343C25.7292 112.673 32.0012 113.461 35.3988 113.811L37.1342 113.884L34.7985 77.2106L38.2693 71.4974C38.327 71.4052 38.2962 71.2861 38.2039 71.2285V71.2323Z" fill="#233859"/>
<path d="M40.6511 54.5488C40.6511 54.5488 53.5336 68 62.5875 66.6937C62.7799 66.6668 62.8645 66.4325 62.7414 66.2826L60.8598 63.962" stroke="white" stroke-width="0.492269" stroke-miterlimit="10" stroke-linecap="round"/>
<path d="M8.86808 77.082L6.51321 81.3929L30.8391 86.0956C30.8391 86.0956 31.2316 83.3523 30.8391 83.3523C30.4466 83.3523 8.86423 77.082 8.86423 77.082H8.86808Z" fill="#F6F6F6"/>
<path d="M82.2422 79.041L72.6304 87.0749L72.3379 91.5547L83.4196 82.5681L82.2422 79.041Z" fill="#F6F6F6"/>
<path d="M129.012 108.934L59.5862 108.934V107.312C59.5862 106.671 60.1057 106.152 60.7483 106.152L129.012 106.152V108.934Z" fill="white"/>
<path d="M124.991 110.117L55.5653 110.117V108.496C55.5653 107.854 56.0848 107.336 56.7274 107.336L124.991 107.336V110.117Z" fill="#BCD5E2"/>
<path opacity="0.29" d="M124.991 110.117L55.5653 110.117V108.496C55.5653 107.854 56.0848 107.336 56.7274 107.336L124.991 107.336V110.117Z" fill="#233859"/>
<path d="M62.6953 106.062V107.415" stroke="#BCD5E2" stroke-width="0.381267" stroke-miterlimit="10"/>
<path d="M66.7548 106.062V107.415" stroke="#BCD5E2" stroke-width="0.381267" stroke-miterlimit="10"/>
<path d="M70.8142 106.062V107.415" stroke="#BCD5E2" stroke-width="0.381267" stroke-miterlimit="10"/>
<path d="M78.937 106.062V107.415" stroke="#BCD5E2" stroke-width="0.381267" stroke-miterlimit="10"/>
<path d="M79.3063 110.057H142.564L155.666 50.8965H92.4042L79.3063 110.057Z" fill="#D0E6EF"/>
<path d="M80.1181 110.057H143.376L156.478 50.8965H93.2161L80.1181 110.057Z" fill="#BCD5E2"/>
<g opacity="0.1">
<path d="M87.6023 94.9375L84.7433 106.045L99.4766 106.091" stroke="#2A4365" stroke-width="0.381267" stroke-miterlimit="10"/>
<path d="M132.972 108.865L140.995 108.946" stroke="#2A4365" stroke-width="0.381267" stroke-miterlimit="10"/>
<path d="M128.651 108.98L130.956 108.977" stroke="#2A4365" stroke-width="0.381267" stroke-miterlimit="10"/>
<path d="M131.671 54.5387L151.976 54.2812L148.025 69.9071L144.427 85.4369" stroke="#2A4365" stroke-width="0.381267" stroke-miterlimit="10"/>
</g>
<path opacity="0.17" d="M122.375 81.0497C122.613 80.5694 122.775 80.0546 122.837 79.5359C122.898 78.9942 122.848 78.4947 122.698 78.0605" stroke="#2A4365" stroke-width="0.381267" stroke-linecap="round" stroke-linejoin="round"/>
<path opacity="0.17" d="M115.872 78.9609C115.687 79.2798 115.541 79.6141 115.433 79.9599C115.353 80.2173 115.295 80.4824 115.264 80.7475C115.133 81.8886 115.51 82.8338 116.218 83.4063C116.815 83.8904 117.65 84.1094 118.608 83.9557C119.45 83.8212 120.259 83.4216 120.943 82.853" stroke="#2A4365" stroke-width="0.381267" stroke-linecap="round" stroke-linejoin="round"/>
<path opacity="0.17" d="M116.253 80.5897C116.072 82.1458 117.18 83.2101 118.727 82.9642C120.274 82.7183 121.675 81.2544 121.855 79.6984C121.979 78.638 121.809 77.8311 121.005 77.4892C120.828 77.4123 120.058 77.6851 119.855 77.6582C119.624 77.6313 119.085 77.3547 118.827 77.397C117.28 77.6429 116.438 79.0337 116.257 80.5897H116.253Z" fill="#2A4365"/>
<g opacity="0.17">
<path d="M119.431 75.2246C119.828 75.3399 120.147 75.701 120.274 76.1006C120.343 76.3042 120.451 76.5386 120.355 76.7538C120.266 76.9612 120.108 77.1572 119.82 77.2187C119.789 77.2263 119.762 77.211 119.751 77.1841C119.631 76.9267 119.585 76.773 119.554 76.627C119.516 76.4887 119.624 76.3619 119.635 76.2082C119.643 76.0622 119.635 75.9085 119.601 75.7548C119.57 75.5935 119.493 75.4436 119.389 75.2938C119.366 75.263 119.397 75.2169 119.435 75.2285L119.431 75.2246Z" fill="#2A4365"/>
</g>
<path d="M54.888 100.812C55.7499 100.485 57.3467 99.2286 58.4357 98.6984C59.0821 98.3833 59.8401 98.3987 60.4712 98.7406L65.5157 100.654L54.8841 100.812H54.888Z" fill="#E0ADA0"/>
<path d="M60.2365 99.8763L48.4006 101.248C47.8158 101.317 47.2232 101.248 46.6729 101.04C39.0581 98.1589 29.7733 93.1372 25.7408 91.9692L28.4882 85.6989L10.8305 82.1719C10.6151 82.7866 0.629976 103.33 7.29824 105.286C12.5159 106.819 39.2505 109.07 46.7614 109.681C48.0582 109.785 49.3587 109.651 50.6054 109.282L62.4528 105.774C63.5995 105.451 64.4499 104.491 65.635 104.625L69.9407 105.225L74.7851 106.462H75.1891C76.3165 106.462 76.659 104.936 75.6432 104.452L69.2827 101.444C66.4661 100.111 63.3378 99.5689 60.2365 99.8686V99.8763Z" fill="#E9B6A6"/>
<path opacity="0.4" d="M26.6758 85.1934C26.6065 87.9712 25.2406 90.2649 21.6698 91.7326L25.7369 91.9747L28.4304 85.6967L26.672 85.1972L26.6758 85.1934Z" fill="#E18E76"/>
<path opacity="0.4" d="M70.8641 72.7734L72.6303 87.0737L75.5739 84.5264L70.8641 72.7734Z" fill="#233859"/>
<path opacity="0.2" d="M41.7785 83.0039L51.702 83.2344C51.702 83.2344 51.4712 91.9061 46.3536 93.5313C41.236 95.1565 41.7785 83.0039 41.7785 83.0039Z" fill="#233859"/>
<path opacity="0.2" d="M41.8362 81.3887L51.8636 81.7037" stroke="#2A4365" stroke-width="0.974885" stroke-miterlimit="10"/>
<path d="M42.7597 43.8926L43.2792 54.3393C43.2792 54.3393 53.5798 64.3787 59.5824 62.4038L57.2121 47.4696L42.7559 43.8964L42.7597 43.8926Z" fill="#E9B6A6"/>
<path opacity="0.4" d="M42.8714 45.7767C46.9462 49.9876 54.3918 59.3009 59.4247 61.2488L57.4354 48.6813L42.6713 42.4609L42.8714 45.7767Z" fill="#233859"/>
<path d="M43.0406 10.6308C36.534 17.1317 36.9688 28.4352 36.9688 28.4352C36.9688 28.4352 32.4437 27.7436 32.5053 33.2877C32.5861 40.2996 37.8422 43.2772 40.5395 42.8277C69.2981 78.1251 90.6727 33.4645 71.9339 7.86068C62.5221 3.80726 49.5434 4.13384 43.0406 10.627V10.6308Z" fill="#E9B6A6"/>
<path d="M37.2112 34.0801L37.5922 36.37" stroke="#1B4268" stroke-linecap="round" stroke-linejoin="round"/>
<path d="M44.4605 5.19146C44.4605 5.19146 33.6674 4.05804 32.9901 16.1261C32.8401 18.7848 33.2479 21.4359 34.1099 23.964C34.3022 24.5249 36.9457 27.4449 36.9457 27.4449C39.1313 27.71 41.463 27.9828 43.3792 28.3286C43.3792 28.3286 43.4831 25.1205 43.083 23.599C43.083 23.599 47.1809 22.7345 50.2168 19.9989C49.7012 20.8135 49.1664 21.651 48.6508 22.4694C53.0527 20.9441 53.4297 14.3088 53.4297 14.3088C53.4067 14.4433 53.3374 14.6277 53.2412 14.8505C53.4028 14.036 53.4644 13.1561 53.3913 12.1995C56.8004 15.2962 58.8859 16.9253 62.9338 18.4352C62.2028 17.6476 61.768 17.1904 61.5063 16.8023C67.051 19.3419 74.358 21.4551 79.8527 18.585C97.9105 9.15267 54.9112 -6.74596 44.4605 5.19915V5.19146Z" fill="#935C58"/>
<path d="M39.5237 35.1984L37.4883 35.0332" stroke="#1B4268" stroke-linecap="round" stroke-linejoin="round"/>
<path d="M81.4072 8.5878C80.1836 7.52738 78.6098 6.51691 76.8052 5.59865C76.8052 5.59865 76.7975 5.59865 76.7937 5.5948C75.7201 5.04922 74.5658 4.53822 73.3499 4.06565C73.3268 4.05796 73.3037 4.05028 73.2845 4.03875C72.1763 3.60844 71.0143 3.22038 69.8214 2.86691L72.5996 2.29828C59.7286 -0.375828 51.4674 0.799857 48.0274 2.61717C47.9889 2.63638 47.9504 2.65175 47.912 2.66712C47.8235 2.70938 47.735 2.75165 47.6465 2.79391C47.3964 2.9207 47.1501 3.05133 46.9115 3.19349C46.8769 3.21654 46.8384 3.23191 46.8 3.25496C46.5306 3.41633 46.2766 3.58922 46.0265 3.7698C45.9573 3.81975 45.8919 3.87354 45.8226 3.92349C45.6379 4.06564 45.4609 4.21165 45.2878 4.36149C45.2223 4.41912 45.1531 4.48059 45.0877 4.53822C45.0492 4.5728 45.0184 4.61123 44.9799 4.64965L45.5802 1.73733C45.6264 1.51833 45.484 1.30317 45.2608 1.25707C45.0377 1.21096 44.826 1.35312 44.7798 1.57596L44.1757 4.51901L41.944 3.04749C41.7555 2.92454 41.5015 2.97449 41.3784 3.16275C41.2552 3.35101 41.3053 3.60459 41.4938 3.72754L43.6717 5.16449C42.4712 5.17217 40.0778 5.37196 37.8499 6.7167C31.8974 10.117 31.0508 18.6464 32.2937 23.695L33.4865 21.7585C33.5365 21.9814 33.5865 22.2004 33.6443 22.4232C33.6443 22.4347 33.652 22.4463 33.652 22.4578C33.8328 23.1417 33.9405 23.8832 34.383 24.448C36.5955 24.2674 39.3506 25.5123 40.9128 26.6918C40.9128 26.6918 40.7781 21.3013 40.3779 19.7799C40.3779 19.7799 50.2053 19.6531 53.2143 14.9695C53.6183 13.8361 53.4913 13.6632 53.3759 12.1917C53.3759 12.1917 53.5182 12.2916 53.7837 12.4722C53.7799 12.3684 53.7837 12.2685 53.776 12.161C53.776 12.161 67.0048 20.0565 77.1477 14.7582C80.7646 12.8679 81.9267 10.7202 81.3957 8.5878H81.4072Z" fill="#A06B64"/>
<path d="M65.7003 26.7793C65.7003 26.7793 69.4019 39.124 68.1552 40.023C66.6931 41.0796 64.7653 40.3919 64.7653 40.3919" stroke="#1B4268" stroke-width="0.7" stroke-linecap="round" stroke-linejoin="round"/>
<path d="M58.6724 35.7997C59.5199 35.7346 60.1126 34.4572 59.9962 32.9466C59.8798 31.436 59.0984 30.2642 58.2508 30.3294C57.4033 30.3945 56.8106 31.6718 56.927 33.1824C57.0434 34.693 57.8249 35.8648 58.6724 35.7997Z" fill="#2A4365"/>
<path d="M72.8839 34.6161C73.7314 34.551 74.3241 33.2736 74.2077 31.763C74.0913 30.2524 73.3099 29.0806 72.4623 29.1458C71.6148 29.2109 71.0221 30.4883 71.1385 31.9988C71.2549 33.5094 72.0363 34.6812 72.8839 34.6161Z" fill="#2A4365"/>
<path d="M53.8991 28.5222C54.9688 26.8624 57.216 26.3168 59.313 26.7702" stroke="#1B4268" stroke-width="0.7" stroke-linecap="round" stroke-linejoin="round"/>
<path d="M75.9664 26.4622C74.635 25.1021 72.5418 25.0944 70.8218 26.0165" stroke="#1B4268" stroke-width="0.7" stroke-linecap="round" stroke-linejoin="round"/>
<path d="M56.0117 44.9688C56.0886 45.5297 58.7513 47.9886 60.5752 47.7082" stroke="#1B4268" stroke-width="0.7" stroke-linecap="round" stroke-linejoin="round"/>
<path d="M37.1688 28.1133L43.1445 29.0853" stroke="#A37A72" stroke-width="0.622575" stroke-linecap="round" stroke-linejoin="round"/>
<path d="M38.7888 29.4082L43.2253 30.1228" stroke="#A37A72" stroke-width="0.622575" stroke-linecap="round" stroke-linejoin="round"/>
</g>
</svg>
